<svg xmlns="http://www.w3.org/2000/svg" width="496.74" height="133.327" viewBox="0 0 1490.846 399.859" fill="none" fill-rule="evenodd" stroke="#000" xmlns:v="https://vecta.io/nano"><path d="M35.876 51.065v344.41" stroke-linecap="butt" stroke-width="3.189" stroke-linejoin="bevel"/><path d="M0 223.956c9.092 6.544 15.154 15.498 15.154 27.897 0 16.876-12.796 47.873-12.796 76.46 0 18.943 5.388 39.952 22.562 66.127-8.42-15.498-14.143-28.242-14.143-45.462v-4.133c1-25.83 14.143-55.45 14.143-74.737 0-24.11-6.735-34.097-24.246-46.84 17.848-11.7 24.246-23.42 24.246-46.84 0-19.287-13.133-48.906-14.143-74.737v-3.79c0-16.876 6.398-29.62 14.143-45.462v-1.378C7.745 75.86 2.357 99.97 2.357 118.222c0 28.93 12.796 59.583 12.796 76.46 0 12.4-6.06 21.353-15.154 27.897v1.378z" fill="#000" stroke="none"/><path d="M34.28 153.112h1456.565M34.28 127.6h1456.565M34.28 102.1h1456.565M34.28 76.577h1456.565M34.28 51.065h1456.565" stroke-linecap="butt" stroke-linejoin="bevel" stroke-width="2.392"/><path d="M80.458 163.93c-7.756.102-12.96 6.633-12.96 11.53 0 11.43 11.123 17.552 20 17.552 8.164 0 20.614-5.817 20.614-17.042 0-1.327-.102-2.653-.5-4.082l-5.204-21.022c13.572-5.715 19.083-20.716 19.185-28.675v-.5c0-15.51-10.205-23.063-21.022-24.695-1.123-.204-2.45-.204-3.776-.204-2.755 0-5.715.306-7.347.918L84.54 79.026c12.348-12.552 19.9-26.43 19.9-42.452v-.612c-.204-17.654-11.633-34.186-15.92-34.9-4.592 1.53-15.51 19.287-15.715 32.96v1.123c0 13.062 3.368 20.614 6.02 31.33-8.266 8.572-25.4 26.94-25.4 46.84 0 21.022 13.674 39.4 36.94 39.4a46.78 46.78 0 0 0 9.694-1.02l5.102 21.022c.306 1.123.408 2.143.408 3.163 0 8.878-9.388 14.695-17.858 14.695-5.306 0-11.633-4.592-12.144-8.674 1.225.918 2.653 1.225 4.082 1.225 5.102 0 10.817-4.5 10.817-8.878 0-5.102-3.572-10.103-10-10.307zM91.58 12.287c4.592 1.123 7.96 13.572 7.96 21.43C99.438 44.84 87.5 57.392 80.866 64.535c-2.04-8.368-4.388-14.49-4.388-27.247 0-13.47 11.327-24.593 15.103-25.002zM86.478 98.72c-8.776 3.368-12.144 10-12.144 18.777 0 1.02 0 2.04.102 3.06.918 12.144 9.286 18.777 14.083 20.103-5.715-4.592-9.694-8.776-9.797-16.328 0-6.94 2.96-12.246 11.02-14.083l9.286 37.35c-2.347.714-7.347 1.02-10.817 1.02-1.123 0-2.143 0-2.755-.102-16.94-1.735-24.9-17.552-24.9-31.226.102-15 18.062-32.043 21.94-36.33l3.98 17.756zm5.715 11.123c1.94-.306 3.878-.5 5.715-.5 9.184 0 16.02 4.082 17.348 9.9.408 2.04.612 3.98.612 5.92 0 9.9-5.715 17.96-14.49 21.838l-9.184-37.145z" fill="#000" stroke="none"/><path d="M34.28 395.474h1456.565M34.28 369.963h1456.565M34.28 344.45h1456.565M34.28 318.94h1456.565M34.28 293.427h1456.565" stroke-linecap="butt" stroke-linejoin="bevel" stroke-width="2.392"/><path d="M114.54 330.266c0 2.653 2.04 5.715 5.92 5.715 3.47 0 5.92-3.06 5.92-5.715 0-3.163-2.45-5.817-5.92-5.817-3.878 0-5.92 2.653-5.92 5.817zm0-22.96c0 2.653 2.04 5.51 5.92 5.51 3.47 0 5.92-2.857 5.92-5.51 0-3.163-2.45-5.715-5.92-5.715-3.878 0-5.92 2.55-5.92 5.715zm-60.514 70.31c23.063-11.225 56.228-27.043 56.228-59.596 0-15.613-14.083-25.002-28.47-25.002-10.103 0-25.92 9.5-25.92 22.552 0 7.55 6.225 11.123 12.246 11.123 5.817 0 11.43-3.266 11.43-9.694 0-4.5-3.368-8.47-8.266-8.47-.612 0-1.327.102-2.04.204-1.327.204-3.163.816-3.878.816-2.245 0-3.266-1.225-3.266-2.755 0-.5.102-.918.306-1.43 3.47-5.613 8.572-8.062 15.817-9.184.714-.102 1.43-.204 2.143-.204 10.817 0 15.103 13.266 15.103 22.86 0 6.837-2.55 16.94-6.53 23.88-9.082 15.92-19.39 22.348-35.512 32.655l.612 2.245z" fill="#000" stroke="none"/></svg>